<svg width="29" height="29" viewBox="0 0 29 29" fill="none" xmlns="http://www.w3.org/2000/svg">
<g clip-path="url(#clip0_34_7)">
<path d="M14.5 27.4896C21.674 27.4896 27.4896 21.674 27.4896 14.5C27.4896 7.32607 21.674 1.51044 14.5 1.51044C7.32607 1.51044 1.51044 7.32607 1.51044 14.5C1.51044 21.674 7.32607 27.4896 14.5 27.4896Z" stroke="black" stroke-width="2" stroke-linecap="round" stroke-linejoin="round"/>
<path d="M4.26001 22.4919C6.99024 16.8375 5.36443 9.51984 9.7682 8.3683C14.172 7.21676 17.052 9.1809 19.3563 9.85878C21.6606 10.5367 23.5722 10.8955 23.9975 13.0427C24.6071 16.127 14.5786 21.5748 16.7137 27.4896" stroke="black" stroke-width="2" stroke-linecap="round" stroke-linejoin="round"/>
<path d="M14.7145 16.2956C16.6454 17.8199 18.6391 17.3136 23.0496 15.4661M18.0338 9.38697C18.0338 8.0137 15.5277 6.91109 13.9744 8.1309" stroke="black" stroke-linecap="round" stroke-linejoin="round"/>
<path d="M12.7159 13.5515C13.8197 13.5515 14.7145 12.6567 14.7145 11.5529C14.7145 10.4491 13.8197 9.55432 12.7159 9.55432C11.6121 9.55432 10.7173 10.4491 10.7173 11.5529C10.7173 12.6567 11.6121 13.5515 12.7159 13.5515Z" stroke="black" stroke-width="0.5" stroke-linecap="round" stroke-linejoin="round"/>
<path d="M12.7159 12.3322C13.1463 12.3322 13.4953 11.9833 13.4953 11.5529C13.4953 11.1224 13.1463 10.7735 12.7159 10.7735C12.2855 10.7735 11.9365 11.1224 11.9365 11.5529C11.9365 11.9833 12.2855 12.3322 12.7159 12.3322Z" stroke="black" stroke-width="0.5" stroke-linecap="round" stroke-linejoin="round"/>
<path d="M21.0498 14.3586C21.3084 14.3586 21.518 14.149 21.518 13.8904C21.518 13.6318 21.3084 13.4222 21.0498 13.4222C20.7912 13.4222 20.5815 13.6318 20.5815 13.8904C20.5815 14.149 20.7912 14.3586 21.0498 14.3586Z" fill="black"/>
<path d="M25.6015 13.8898C25.451 11.1588 24.2992 8.5791 22.3662 6.64394C20.4333 4.70878 17.8549 3.55395 15.1241 3.40027" stroke="black" stroke-linecap="round" stroke-linejoin="round"/>
</g>
<defs>
<clipPath id="clip0_34_7">
<rect width="29" height="29" fill="white"/>
</clipPath>
</defs>
</svg>
